<mxfile host="Electron" agent="Mozilla/5.0 (Windows NT 10.0; Win64; x64) AppleWebKit/537.36 (KHTML, like Gecko) draw.io/27.0.9 Chrome/134.0.6998.205 Electron/35.4.0 Safari/537.36" version="27.0.9">
  <diagram name="Page-1" id="F9IdC14ed_AcTiMS0Q31">
    <mxGraphModel dx="2316" dy="1391" grid="0" gridSize="10" guides="1" tooltips="1" connect="1" arrows="1" fold="1" page="1" pageScale="1" pageWidth="1500" pageHeight="700" math="0" shadow="0">
      <root>
        <mxCell id="0" />
        <mxCell id="1" parent="0" />
        <mxCell id="VpD88B-mrL_4zNGiHZPM-4" value="&lt;h1&gt;&lt;font style=&quot;font-size: 45px;&quot;&gt;&lt;span&gt;High Level Architecture&lt;/span&gt;&lt;/font&gt;&lt;/h1&gt;" style="rounded=1;html=1;fontFamily=Verdana;fontSize=18;labelBorderColor=none;whiteSpace=wrap;fontStyle=0" vertex="1" parent="1">
          <mxGeometry x="106" y="141" width="1251" height="116" as="geometry" />
        </mxCell>
        <mxCell id="VpD88B-mrL_4zNGiHZPM-5" value="" style="rounded=1;whiteSpace=wrap;html=1;" vertex="1" parent="1">
          <mxGeometry x="38" y="325" width="233" height="931" as="geometry" />
        </mxCell>
        <mxCell id="VpD88B-mrL_4zNGiHZPM-9" value="" style="rounded=0;whiteSpace=wrap;html=1;" vertex="1" parent="1">
          <mxGeometry x="294" y="325" width="891" height="930" as="geometry" />
        </mxCell>
        <mxCell id="VpD88B-mrL_4zNGiHZPM-10" value="" style="rounded=1;whiteSpace=wrap;html=1;" vertex="1" parent="1">
          <mxGeometry x="1223" y="323" width="233" height="934" as="geometry" />
        </mxCell>
        <mxCell id="VpD88B-mrL_4zNGiHZPM-11" value="&lt;span style=&quot;font-size: 30px;&quot;&gt;&lt;b&gt;Sources&lt;/b&gt;&lt;/span&gt;" style="rounded=1;whiteSpace=wrap;html=1;" vertex="1" parent="1">
          <mxGeometry x="86" y="295" width="139.5" height="60" as="geometry" />
        </mxCell>
        <mxCell id="VpD88B-mrL_4zNGiHZPM-12" value="&lt;span style=&quot;font-size: 30px;&quot;&gt;&lt;b&gt;Consume&lt;/b&gt;&lt;/span&gt;" style="rounded=1;whiteSpace=wrap;html=1;" vertex="1" parent="1">
          <mxGeometry x="1263.5" y="295" width="152" height="60" as="geometry" />
        </mxCell>
        <mxCell id="VpD88B-mrL_4zNGiHZPM-13" style="edgeStyle=orthogonalEdgeStyle;rounded=0;orthogonalLoop=1;jettySize=auto;html=1;exitX=0;exitY=0.5;exitDx=0;exitDy=0;entryX=0.17;entryY=0.002;entryDx=0;entryDy=0;entryPerimeter=0;" edge="1" parent="1" source="VpD88B-mrL_4zNGiHZPM-11" target="VpD88B-mrL_4zNGiHZPM-5">
          <mxGeometry relative="1" as="geometry" />
        </mxCell>
        <mxCell id="VpD88B-mrL_4zNGiHZPM-14" value="&lt;span style=&quot;font-size: 30px;&quot;&gt;&lt;b&gt;Data Warehouse&lt;/b&gt;&lt;/span&gt;" style="rounded=1;whiteSpace=wrap;html=1;" vertex="1" parent="1">
          <mxGeometry x="480" y="295" width="502" height="60" as="geometry" />
        </mxCell>
        <mxCell id="VpD88B-mrL_4zNGiHZPM-15" value="&lt;font style=&quot;font-size: 29px;&quot;&gt;CRM&lt;/font&gt;" style="image;html=1;image=img/lib/clip_art/general/Full_Folder_128x128.png" vertex="1" parent="1">
          <mxGeometry x="109" y="520" width="80" height="80" as="geometry" />
        </mxCell>
        <mxCell id="VpD88B-mrL_4zNGiHZPM-17" value="&lt;font style=&quot;font-size: 29px;&quot;&gt;ERP&lt;/font&gt;" style="image;html=1;image=img/lib/clip_art/general/Full_Folder_128x128.png" vertex="1" parent="1">
          <mxGeometry x="109" y="677" width="80" height="80" as="geometry" />
        </mxCell>
        <mxCell id="VpD88B-mrL_4zNGiHZPM-21" value="" style="line;strokeWidth=2;html=1;" vertex="1" parent="1">
          <mxGeometry x="62.5" y="838" width="185.5" height="10" as="geometry" />
        </mxCell>
        <mxCell id="VpD88B-mrL_4zNGiHZPM-22" value="Object type: &lt;span style=&quot;font-weight: normal;&quot;&gt;CSV files&lt;/span&gt;" style="text;strokeColor=none;fillColor=none;html=1;fontSize=20;fontStyle=1;verticalAlign=middle;align=center;" vertex="1" parent="1">
          <mxGeometry x="56" y="869" width="187" height="73" as="geometry" />
        </mxCell>
        <mxCell id="VpD88B-mrL_4zNGiHZPM-23" value="Interface&lt;span style=&quot;font-weight: normal;&quot;&gt;: Files in folders&lt;/span&gt;" style="text;strokeColor=none;fillColor=none;html=1;fontSize=20;fontStyle=1;verticalAlign=middle;align=center;" vertex="1" parent="1">
          <mxGeometry x="61.5" y="918" width="187" height="73" as="geometry" />
        </mxCell>
        <mxCell id="VpD88B-mrL_4zNGiHZPM-24" value="" style="rounded=0;whiteSpace=wrap;html=1;fillColor=none;strokeColor=#CD7F32;" vertex="1" parent="1">
          <mxGeometry x="325" y="456" width="246" height="762" as="geometry" />
        </mxCell>
        <mxCell id="VpD88B-mrL_4zNGiHZPM-25" value="" style="rounded=0;whiteSpace=wrap;html=1;strokeColor=#C0C0C0;" vertex="1" parent="1">
          <mxGeometry x="604" y="456" width="253" height="760" as="geometry" />
        </mxCell>
        <mxCell id="VpD88B-mrL_4zNGiHZPM-26" value="" style="rounded=0;whiteSpace=wrap;html=1;strokeColor=#FFD700;" vertex="1" parent="1">
          <mxGeometry x="888" y="457" width="260" height="759" as="geometry" />
        </mxCell>
        <mxCell id="VpD88B-mrL_4zNGiHZPM-27" value="" style="rounded=1;whiteSpace=wrap;html=1;labelBorderColor=default;labelBackgroundColor=#CD7F32;strokeColor=#CD7F32;glass=0;fillColor=#CD7F32;" vertex="1" parent="1">
          <mxGeometry x="325" y="384" width="245" height="60" as="geometry" />
        </mxCell>
        <mxCell id="VpD88B-mrL_4zNGiHZPM-28" value="&lt;b style=&quot;font-size: 33px;&quot;&gt;&lt;font style=&quot;color: rgb(0, 0, 0);&quot;&gt;Silver Layer&lt;/font&gt;&lt;/b&gt;" style="rounded=0;whiteSpace=wrap;html=1;fillColor=#C0C0C0;fillStyle=auto;gradientColor=none;gradientDirection=radial;" vertex="1" parent="1">
          <mxGeometry x="604" y="384" width="253" height="60" as="geometry" />
        </mxCell>
        <mxCell id="VpD88B-mrL_4zNGiHZPM-29" value="&lt;font style=&quot;font-size: 27px; color: rgb(0, 0, 0);&quot;&gt;&lt;b&gt;GOLD LAYER&lt;/b&gt;&lt;/font&gt;" style="rounded=0;whiteSpace=wrap;html=1;fillColor=#FFD700;" vertex="1" parent="1">
          <mxGeometry x="887" y="384" width="262" height="60" as="geometry" />
        </mxCell>
        <mxCell id="VpD88B-mrL_4zNGiHZPM-30" value="&lt;b style=&quot;forced-color-adjust: none; font-family: Helvetica; font-size: 33px; font-style: normal; font-variant-ligatures: normal; font-variant-caps: normal; letter-spacing: normal; orphans: 2; text-align: center; text-indent: 0px; text-transform: none; widows: 2; word-spacing: 0px; -webkit-text-stroke-width: 0px; white-space: normal; text-decoration-thickness: initial; text-decoration-style: initial; text-decoration-color: initial; box-shadow: none !important;&quot;&gt;Bronze Layer&lt;/b&gt;" style="text;whiteSpace=wrap;html=1;fontColor=#000000;" vertex="1" parent="1">
          <mxGeometry x="342" y="388.9966463216148" width="215" height="62" as="geometry" />
        </mxCell>
        <mxCell id="VpD88B-mrL_4zNGiHZPM-35" value="" style="html=1;verticalLabelPosition=bottom;align=center;labelBackgroundColor=#ffffff;verticalAlign=top;strokeWidth=2;strokeColor=#0080F0;shadow=0;dashed=0;shape=mxgraph.ios7.icons.data;" vertex="1" parent="1">
          <mxGeometry x="402" y="557" width="80" height="82" as="geometry" />
        </mxCell>
        <mxCell id="VpD88B-mrL_4zNGiHZPM-36" value="" style="html=1;verticalLabelPosition=bottom;align=center;labelBackgroundColor=#ffffff;verticalAlign=top;strokeWidth=2;strokeColor=#0080F0;shadow=0;dashed=0;shape=mxgraph.ios7.icons.data;" vertex="1" parent="1">
          <mxGeometry x="694.5" y="562" width="80" height="82" as="geometry" />
        </mxCell>
        <mxCell id="VpD88B-mrL_4zNGiHZPM-37" value="" style="html=1;verticalLabelPosition=bottom;align=center;labelBackgroundColor=#ffffff;verticalAlign=top;strokeWidth=2;strokeColor=#0080F0;shadow=0;dashed=0;shape=mxgraph.ios7.icons.data;" vertex="1" parent="1">
          <mxGeometry x="978" y="561" width="80" height="82" as="geometry" />
        </mxCell>
        <mxCell id="VpD88B-mrL_4zNGiHZPM-38" value="&lt;span style=&quot;font-weight: normal;&quot;&gt;Raw Data&lt;/span&gt;" style="text;strokeColor=none;fillColor=none;html=1;fontSize=24;fontStyle=1;verticalAlign=middle;align=center;" vertex="1" parent="1">
          <mxGeometry x="394" y="651" width="100" height="40" as="geometry" />
        </mxCell>
        <mxCell id="VpD88B-mrL_4zNGiHZPM-39" value="&lt;span style=&quot;font-weight: normal;&quot;&gt;Cleaned,&amp;nbsp;&lt;/span&gt;&lt;div&gt;&lt;span style=&quot;font-weight: normal;&quot;&gt;Structured Data&lt;/span&gt;&lt;/div&gt;" style="text;strokeColor=none;fillColor=none;html=1;fontSize=24;fontStyle=1;verticalAlign=middle;align=center;" vertex="1" parent="1">
          <mxGeometry x="688.5" y="664" width="100" height="40" as="geometry" />
        </mxCell>
        <mxCell id="VpD88B-mrL_4zNGiHZPM-40" value="&lt;span style=&quot;font-weight: 400;&quot;&gt;Business Ready&lt;/span&gt;&lt;div&gt;&lt;span style=&quot;font-weight: 400;&quot;&gt;Data&lt;/span&gt;&lt;/div&gt;" style="text;strokeColor=none;fillColor=none;html=1;fontSize=24;fontStyle=1;verticalAlign=middle;align=center;" vertex="1" parent="1">
          <mxGeometry x="972" y="667" width="100" height="40" as="geometry" />
        </mxCell>
        <mxCell id="VpD88B-mrL_4zNGiHZPM-41" value="" style="line;strokeWidth=2;html=1;" vertex="1" parent="1">
          <mxGeometry x="338" y="735.5" width="211" height="10" as="geometry" />
        </mxCell>
        <mxCell id="VpD88B-mrL_4zNGiHZPM-42" value="" style="line;strokeWidth=2;html=1;" vertex="1" parent="1">
          <mxGeometry x="620" y="734.5" width="227" height="10" as="geometry" />
        </mxCell>
        <mxCell id="VpD88B-mrL_4zNGiHZPM-43" value="" style="line;strokeWidth=2;html=1;" vertex="1" parent="1">
          <mxGeometry x="902" y="735.5" width="236" height="10" as="geometry" />
        </mxCell>
        <mxCell id="VpD88B-mrL_4zNGiHZPM-44" value="Object type: &lt;span style=&quot;font-weight: 400;&quot;&gt;Tables&lt;/span&gt;" style="text;strokeColor=none;fillColor=none;html=1;fontSize=20;fontStyle=1;verticalAlign=middle;align=center;" vertex="1" parent="1">
          <mxGeometry x="331" y="739" width="187" height="73" as="geometry" />
        </mxCell>
        <mxCell id="VpD88B-mrL_4zNGiHZPM-45" value="Loads:&lt;div&gt;&lt;ul&gt;&lt;li&gt;&lt;span style=&quot;font-weight: normal;&quot;&gt;Batch Processing&lt;/span&gt;&lt;/li&gt;&lt;li&gt;&lt;span style=&quot;font-weight: normal;&quot;&gt;Full load&lt;/span&gt;&lt;/li&gt;&lt;li&gt;&lt;span style=&quot;font-weight: 400;&quot;&gt;Truncate and Insert&lt;/span&gt;&lt;/li&gt;&lt;/ul&gt;&lt;/div&gt;" style="text;strokeColor=none;fillColor=none;html=1;fontSize=20;fontStyle=1;verticalAlign=middle;align=left;" vertex="1" parent="1">
          <mxGeometry x="335" y="827" width="187" height="73" as="geometry" />
        </mxCell>
        <mxCell id="VpD88B-mrL_4zNGiHZPM-46" style="edgeStyle=orthogonalEdgeStyle;rounded=0;orthogonalLoop=1;jettySize=auto;html=1;exitX=0.5;exitY=1;exitDx=0;exitDy=0;" edge="1" parent="1" source="VpD88B-mrL_4zNGiHZPM-45" target="VpD88B-mrL_4zNGiHZPM-45">
          <mxGeometry relative="1" as="geometry" />
        </mxCell>
        <mxCell id="VpD88B-mrL_4zNGiHZPM-47" value="&lt;span style=&quot;font-weight: normal;&quot;&gt;No &lt;/span&gt;Transformations" style="text;strokeColor=none;fillColor=none;html=1;fontSize=20;fontStyle=1;verticalAlign=middle;align=center;" vertex="1" parent="1">
          <mxGeometry x="335" y="900" width="187" height="73" as="geometry" />
        </mxCell>
        <mxCell id="VpD88B-mrL_4zNGiHZPM-48" value="Data Model&lt;span style=&quot;font-weight: 400;&quot;&gt;: None (as is)&lt;/span&gt;" style="text;strokeColor=none;fillColor=none;html=1;fontSize=20;fontStyle=1;verticalAlign=middle;align=center;" vertex="1" parent="1">
          <mxGeometry x="354.5" y="940" width="187" height="73" as="geometry" />
        </mxCell>
        <mxCell id="VpD88B-mrL_4zNGiHZPM-49" value="Object type: &lt;span style=&quot;font-weight: 400;&quot;&gt;Tables&lt;/span&gt;" style="text;strokeColor=none;fillColor=none;html=1;fontSize=20;fontStyle=1;verticalAlign=middle;align=center;" vertex="1" parent="1">
          <mxGeometry x="620" y="739" width="187" height="73" as="geometry" />
        </mxCell>
        <mxCell id="VpD88B-mrL_4zNGiHZPM-50" value="Loads:&lt;div&gt;&lt;ul&gt;&lt;li&gt;&lt;span style=&quot;font-weight: normal;&quot;&gt;Batch Processing&lt;/span&gt;&lt;/li&gt;&lt;li&gt;&lt;span style=&quot;font-weight: normal;&quot;&gt;Full load&lt;/span&gt;&lt;/li&gt;&lt;li&gt;&lt;span style=&quot;font-weight: 400;&quot;&gt;Truncate and Insert&lt;/span&gt;&lt;/li&gt;&lt;/ul&gt;&lt;/div&gt;" style="text;strokeColor=none;fillColor=none;html=1;fontSize=20;fontStyle=1;verticalAlign=middle;align=left;" vertex="1" parent="1">
          <mxGeometry x="621" y="827" width="187" height="73" as="geometry" />
        </mxCell>
        <mxCell id="VpD88B-mrL_4zNGiHZPM-51" value="Transformations:&lt;div&gt;&lt;ul&gt;&lt;li&gt;&lt;span style=&quot;font-weight: normal;&quot;&gt;Data Cleansing&lt;/span&gt;&lt;/li&gt;&lt;li&gt;&lt;span style=&quot;font-weight: normal;&quot;&gt;Data Standardization&lt;/span&gt;&lt;/li&gt;&lt;li&gt;&lt;span style=&quot;font-weight: normal;&quot;&gt;Data Normalization&lt;/span&gt;&lt;/li&gt;&lt;li&gt;&lt;span style=&quot;font-weight: normal;&quot;&gt;Derived Columns&lt;/span&gt;&lt;/li&gt;&lt;li&gt;&lt;span style=&quot;font-weight: normal;&quot;&gt;Data Enrichment&lt;/span&gt;&lt;/li&gt;&lt;/ul&gt;&lt;/div&gt;" style="text;strokeColor=none;fillColor=none;html=1;fontSize=20;fontStyle=1;verticalAlign=middle;align=left;" vertex="1" parent="1">
          <mxGeometry x="620" y="983" width="187" height="73" as="geometry" />
        </mxCell>
        <mxCell id="VpD88B-mrL_4zNGiHZPM-52" value="Data Model&lt;span style=&quot;font-weight: 400;&quot;&gt;: None (as is)&lt;/span&gt;" style="text;strokeColor=none;fillColor=none;html=1;fontSize=20;fontStyle=1;verticalAlign=middle;align=center;" vertex="1" parent="1">
          <mxGeometry x="637" y="1088" width="187" height="73" as="geometry" />
        </mxCell>
        <mxCell id="VpD88B-mrL_4zNGiHZPM-53" value="Object type: &lt;span style=&quot;font-weight: 400;&quot;&gt;Views&lt;/span&gt;" style="text;strokeColor=none;fillColor=none;html=1;fontSize=20;fontStyle=1;verticalAlign=middle;align=center;" vertex="1" parent="1">
          <mxGeometry x="914" y="745.5" width="187" height="73" as="geometry" />
        </mxCell>
        <mxCell id="VpD88B-mrL_4zNGiHZPM-54" value="No Loads" style="text;strokeColor=none;fillColor=none;html=1;fontSize=20;fontStyle=1;verticalAlign=middle;align=left;" vertex="1" parent="1">
          <mxGeometry x="916" y="794" width="187" height="73" as="geometry" />
        </mxCell>
        <mxCell id="VpD88B-mrL_4zNGiHZPM-56" value="Transformations:&lt;div&gt;&lt;ul&gt;&lt;li&gt;&lt;span style=&quot;font-weight: normal;&quot;&gt;Data Integrations&lt;/span&gt;&lt;/li&gt;&lt;li&gt;&lt;span style=&quot;font-weight: normal;&quot;&gt;Aggregations&lt;/span&gt;&lt;/li&gt;&lt;li&gt;&lt;span style=&quot;font-weight: normal;&quot;&gt;Business Logics&lt;/span&gt;&lt;/li&gt;&lt;/ul&gt;&lt;/div&gt;" style="text;strokeColor=none;fillColor=none;html=1;fontSize=20;fontStyle=1;verticalAlign=middle;align=left;" vertex="1" parent="1">
          <mxGeometry x="914" y="897" width="187" height="73" as="geometry" />
        </mxCell>
        <mxCell id="VpD88B-mrL_4zNGiHZPM-57" value="Data Model&lt;span style=&quot;font-weight: 400;&quot;&gt;:&amp;nbsp;&lt;/span&gt;&lt;div&gt;&lt;ul&gt;&lt;li&gt;&lt;span style=&quot;font-weight: 400;&quot;&gt;Star Schema&lt;/span&gt;&lt;/li&gt;&lt;li&gt;&lt;span style=&quot;font-weight: 400;&quot;&gt;Flat Table&lt;/span&gt;&lt;/li&gt;&lt;li&gt;&lt;span style=&quot;font-weight: 400;&quot;&gt;Aggregated Table&lt;/span&gt;&lt;/li&gt;&lt;/ul&gt;&lt;/div&gt;" style="text;strokeColor=none;fillColor=none;html=1;fontSize=20;fontStyle=1;verticalAlign=middle;align=left;" vertex="1" parent="1">
          <mxGeometry x="912" y="1030" width="187" height="73" as="geometry" />
        </mxCell>
        <mxCell id="VpD88B-mrL_4zNGiHZPM-59" value="" style="shape=singleArrow;whiteSpace=wrap;html=1;strokeColor=#99FFFF;rounded=0;gradientColor=default;" vertex="1" parent="1">
          <mxGeometry x="242" y="659" width="100" height="60" as="geometry" />
        </mxCell>
        <mxCell id="VpD88B-mrL_4zNGiHZPM-60" value="" style="shape=singleArrow;whiteSpace=wrap;html=1;strokeColor=#99FFFF;rounded=0;gradientColor=default;" vertex="1" parent="1">
          <mxGeometry x="522" y="659" width="100" height="60" as="geometry" />
        </mxCell>
        <mxCell id="VpD88B-mrL_4zNGiHZPM-61" value="" style="shape=singleArrow;whiteSpace=wrap;html=1;strokeColor=#99FFFF;rounded=0;gradientColor=default;" vertex="1" parent="1">
          <mxGeometry x="831" y="651" width="85" height="60" as="geometry" />
        </mxCell>
        <mxCell id="VpD88B-mrL_4zNGiHZPM-62" value="" style="shape=singleArrow;whiteSpace=wrap;html=1;strokeColor=#99FFFF;rounded=0;gradientColor=default;" vertex="1" parent="1">
          <mxGeometry x="1143" y="653" width="91" height="60" as="geometry" />
        </mxCell>
        <mxCell id="VpD88B-mrL_4zNGiHZPM-63" value="" style="image;aspect=fixed;html=1;points=[];align=center;fontSize=12;image=img/lib/azure2/analytics/Power_BI_Embedded.svg;" vertex="1" parent="1">
          <mxGeometry x="1240" y="462" width="86.25" height="115" as="geometry" />
        </mxCell>
        <mxCell id="VpD88B-mrL_4zNGiHZPM-65" value="" style="sketch=0;pointerEvents=1;shadow=0;dashed=0;html=1;strokeColor=none;fillColor=#DF8C42;labelPosition=center;verticalLabelPosition=bottom;verticalAlign=top;align=center;outlineConnect=0;shape=mxgraph.veeam2.veeam_one_reporter;" vertex="1" parent="1">
          <mxGeometry x="1352" y="466" width="78" height="109" as="geometry" />
        </mxCell>
        <mxCell id="VpD88B-mrL_4zNGiHZPM-66" value="" style="outlineConnect=0;dashed=0;verticalLabelPosition=bottom;verticalAlign=top;align=center;html=1;shape=mxgraph.aws3.postgre_sql_instance;fillColor=#2E73B8;gradientColor=none;" vertex="1" parent="1">
          <mxGeometry x="1271" y="692" width="137" height="178" as="geometry" />
        </mxCell>
        <mxCell id="VpD88B-mrL_4zNGiHZPM-68" value="" style="editableCssRules=.*;html=1;shape=image;verticalLabelPosition=bottom;labelBackgroundColor=#ffffff;verticalAlign=top;aspect=fixed;imageAspect=0;image=data:image/svg+xml,PHN2ZyB4bWxucz0iaHR0cDovL3d3dy53My5vcmcvMjAwMC9zdmciIHhtbG5zOnY9Imh0dHBzOi8vdmVjdGEuaW8vbmFubyIgd2lkdGg9IjE2Ljk3OTk5OTU0MjIzNjMyOCIgaGVpZ2h0PSIyMCIgdmlld0JveD0iMCAwIDE2Ljk3OTk5OTU0MjIzNjMyOCAyMCI+JiN4YTsJPHN0eWxlIHR5cGU9InRleHQvY3NzIj4mI3hhOwkuc3Qwe2ZpbGw6IzY2OWRmNjt9JiN4YTsJLnN0MXtmaWxsOiM0Mjg1ZjQ7fSYjeGE7CS5zdDJ7ZmlsbDojYWVjYmZhO30mI3hhOwk8L3N0eWxlPiYjeGE7CTxnIGNsYXNzPSJzdDAiPiYjeGE7CQk8cGF0aCBkPSJNOC40OSAxMC4yOUwuMjQgNS4zNSA4LjQ5LjU4bDguMjQgNC42N3pNMS43NiA1LjM2bDYuNzIgNCA2LjcyLTQuMTEtNi43MS0zLjc4eiIvPiYjeGE7CQk8cGF0aCBkPSJNOC40OSAxOS40NEwuMjEgMTMuODkgOC40OSA5LjNsOC4xNSA0LjY0em0tNi44LTUuNWw2LjggNC41NiA2LjctNC41LTYuNy0zLjgyeiIvPiYjeGE7CTwvZz4mI3hhOwk8ZyBjbGFzcz0ic3QxIj4mI3hhOwkJPHBhdGggZD0iTS42MTMgNS41MDJsLjY3NS0uMzcxIDcuNDc3IDEzLjYtLjY3NS4zNzF6Ii8+JiN4YTsJCTxwYXRoIGQ9Ik04LjE5NCAxOC44MjZsNy4zMDEtMTMuNTU5LjY3OC4zNjUtNy4zMDEgMTMuNTU5ek0uNzE2IDEzLjY4N0w4LjA5Ni45MDRsLjY2Ny4zODUtNy4zOCAxMi43ODN6Ii8+JiN4YTsJCTxwYXRoIGQ9Ik04LjE5NCAxLjIxNGwuNjY5LS4zODEgNy40MDUgMTIuOTg3LS42NjkuMzgxeiIvPiYjeGE7CQk8cGF0aCBkPSJNOC4xMy45NmguNzdWMTguOWgtLjc3ek0uNTUgNS40M2guNzd2OC42NkguNTV6bTE0Ljk3LS4wOWguNzdWMTRoLS43N3oiLz4mI3hhOwk8L2c+JiN4YTsJPGcgY2xhc3M9InN0MiI+JiN4YTsJCTxjaXJjbGUgY3g9IjguNTIiIGN5PSIxLjA3IiByPSIxLjA3Ii8+JiN4YTsJCTxjaXJjbGUgY3g9IjE1LjkxIiBjeT0iNS4zNCIgcj0iMS4wNyIvPiYjeGE7CQk8Y2lyY2xlIGN4PSIxLjA3IiBjeT0iNS4zNCIgcj0iMS4wNyIvPiYjeGE7CQk8Y2lyY2xlIGN4PSI4LjUyIiBjeT0iOS45MyIgcj0iMS42OCIvPiYjeGE7CQk8Y2lyY2xlIGN4PSIxNS45MSIgY3k9IjEzLjk0IiByPSIxLjA3Ii8+JiN4YTsJCTxjaXJjbGUgY3g9IjEuMDciIGN5PSIxMy45NCIgcj0iMS4wNyIvPiYjeGE7CQk8Y2lyY2xlIGN4PSI4LjUyIiBjeT0iMTguOTMiIHI9IjEuMDciLz4mI3hhOwkJPHBhdGggZD0iTTguNDkgMTAuMjlMLjI0IDUuMzUgOC40OS41OGw4LjI0IDQuNjd6TTEuNzYgNS4zNmw2LjcyIDQgNi43Mi00LjExLTYuNzEtMy43OHoiLz4mI3hhOwkJPHBhdGggZD0iTTguNDkgMTkuNDRMLjIxIDEzLjg5IDguNDkgOS4zbDguMTUgNC42NHptLTYuOC01LjVsNi44IDQuNTYgNi43LTQuNS02LjctMy44MnoiLz4mI3hhOwkJPHBhdGggZD0iTS42MTMgNS41MDJsLjY3NS0uMzcxIDcuNDc3IDEzLjYtLjY3NS4zNzF6Ii8+JiN4YTsJCTxwYXRoIGQ9Ik04LjE5NCAxOC44MjZsNy4zMDEtMTMuNTU5LjY3OC4zNjUtNy4zMDEgMTMuNTU5ek0uNzE2IDEzLjY4N0w4LjA5Ni45MDRsLjY2Ny4zODUtNy4zOCAxMi43ODN6Ii8+JiN4YTsJCTxwYXRoIGQ9Ik04LjE5NCAxLjIxNGwuNjY5LS4zODEgNy40MDUgMTIuOTg3LS42NjkuMzgxeiIvPiYjeGE7CQk8cGF0aCBkPSJNOC4xMy45NmguNzdWMTguOWgtLjc3ek0uNTUgNS40M2guNzd2OC42NkguNTV6bTE0Ljk3LS4wOWguNzdWMTRoLS43N3oiLz4mI3hhOwk8L2c+JiN4YTsJPGcgY2xhc3M9InN0MCI+JiN4YTsJCTxjaXJjbGUgY3g9IjguNTIiIGN5PSIxLjA3IiByPSIxLjA3Ii8+JiN4YTsJCTxjaXJjbGUgY3g9IjE1LjkxIiBjeT0iNS4zNCIgcj0iMS4wNyIvPiYjeGE7CQk8Y2lyY2xlIGN4PSIxLjA3IiBjeT0iNS4zNCIgcj0iMS4wNyIvPiYjeGE7CQk8Y2lyY2xlIGN4PSI4LjUyIiBjeT0iOS45MyIgcj0iMS42OCIvPiYjeGE7CQk8Y2lyY2xlIGN4PSIxNS45MSIgY3k9IjEzLjk0IiByPSIxLjA3Ii8+JiN4YTsJCTxjaXJjbGUgY3g9IjEuMDciIGN5PSIxMy45NCIgcj0iMS4wNyIvPiYjeGE7CQk8Y2lyY2xlIGN4PSI4LjUyIiBjeT0iMTguOTMiIHI9IjEuMDciLz4mI3hhOwk8L2c+JiN4YTs8L3N2Zz4=;" vertex="1" parent="1">
          <mxGeometry x="1273" y="964" width="130.05" height="152" as="geometry" />
        </mxCell>
        <mxCell id="VpD88B-mrL_4zNGiHZPM-69" value="Machine Learning" style="text;strokeColor=none;fillColor=none;html=1;fontSize=20;fontStyle=1;verticalAlign=middle;align=center;" vertex="1" parent="1">
          <mxGeometry x="1249" y="1128" width="187" height="72" as="geometry" />
        </mxCell>
        <mxCell id="VpD88B-mrL_4zNGiHZPM-70" value="SQL Queries" style="text;strokeColor=none;fillColor=none;html=1;fontSize=20;fontStyle=1;verticalAlign=middle;align=center;" vertex="1" parent="1">
          <mxGeometry x="1249" y="862" width="187" height="73" as="geometry" />
        </mxCell>
        <mxCell id="VpD88B-mrL_4zNGiHZPM-71" value="BI &amp;amp; Reporting" style="text;strokeColor=none;fillColor=none;html=1;fontSize=20;fontStyle=1;verticalAlign=middle;align=center;" vertex="1" parent="1">
          <mxGeometry x="1243" y="568" width="187" height="73" as="geometry" />
        </mxCell>
      </root>
    </mxGraphModel>
  </diagram>
</mxfile>
